<?xml version="1.0" encoding="utf-8"?>
<!-- Generator: Adobe Illustrator 20.0.0, SVG Export Plug-In . SVG Version: 6.00 Build 0)  -->
<svg version="1.1" id="Layer_1" xmlns="http://www.w3.org/2000/svg" xmlns:xlink="http://www.w3.org/1999/xlink" x="0px" y="0px"
	 viewBox="0 0 25.1 40.2" style="enable-background:new 0 0 25.1 40.2;" xml:space="preserve">
<style type="text/css">
	.st0{fill:#FFFFFF;stroke:url(#SVGID_1_);stroke-miterlimit:10;}
	.st1{fill:url(#SVGID_2_);stroke:url(#SVGID_3_);stroke-width:1.1;stroke-linecap:round;}
	.st2{fill:none;stroke:url(#SVGID_4_);stroke-width:1.1;stroke-linecap:round;stroke-opacity:0.12;}
</style>
<title>Asset 1</title>
<g id="Layer_2">
	<g id="Layer_1-2">
		<linearGradient id="SVGID_1_" gradientUnits="userSpaceOnUse" x1="5.83" y1="11.76" x2="19.46" y2="11.76">
			<stop  offset="0" style="stop-color:#944A00"/>
			<stop  offset="1" style="stop-color:#E97500"/>
		</linearGradient>
		<rect x="6.3" y="4.5" class="st0" width="12.6" height="14.5"/>
		
			<linearGradient id="SVGID_2_" gradientUnits="userSpaceOnUse" x1="0.55" y1="22.225" x2="24.55" y2="22.225" gradientTransform="matrix(1 0 0 -1 0 42)">
			<stop  offset="0" style="stop-color:#FFB900"/>
			<stop  offset="1" style="stop-color:#FF7F00"/>
		</linearGradient>
		
			<linearGradient id="SVGID_3_" gradientUnits="userSpaceOnUse" x1="-50.16" y1="765.84" x2="-50.16" y2="746.78" gradientTransform="matrix(1 0 0 1 62.73 -746.41)">
			<stop  offset="0" style="stop-color:#944A00"/>
			<stop  offset="1" style="stop-color:#E97500"/>
		</linearGradient>
		<path class="st1" d="M12.6,0.6C6.1,0.7,0.8,5.9,0.6,12.4c0,2.8,1.6,6.3,2.7,8.8L12.6,39l9.3-17.9c1.1-2.4,2.7-5.8,2.7-8.8
			C24.4,5.9,19.1,0.7,12.6,0.6z M12.6,7.7c2.6,0,4.7,2.1,4.7,4.7s-2.1,4.7-4.7,4.7c-2.6,0-4.7-2.1-4.7-4.7C7.9,9.8,10,7.7,12.6,7.7z
			"/>
		<linearGradient id="SVGID_4_" gradientUnits="userSpaceOnUse" x1="1.09" y1="19.4833" x2="24.01" y2="19.4833">
			<stop  offset="0" style="stop-color:#944A00"/>
			<stop  offset="1" style="stop-color:#E97500"/>
		</linearGradient>
		<path class="st2" d="M12.6,1.7C6.7,1.8,1.9,6.5,1.6,12.4c0,2.4,1.4,5.8,2.6,8.2l0,0l8.3,16l8.2-16l0,0c1.2-2.5,2.7-5.7,2.7-8.2
			C23.3,6.5,18.5,1.8,12.6,1.7z M12.6,6.7c3.2,0,5.8,2.6,5.8,5.7c0,3.2-2.6,5.8-5.7,5.8s-5.8-2.6-5.8-5.7c0,0,0,0,0,0
			C6.8,9.3,9.4,6.7,12.6,6.7L12.6,6.7z"/>
	</g>
</g>
</svg>
